<?xml version="1.0" encoding="UTF-8"?>
<svg xmlns="http://www.w3.org/2000/svg" xmlns:xlink="http://www.w3.org/1999/xlink" width="243.597pt" height="44.016pt" viewBox="0 0 243.597 44.016">
<defs>
<g>
<g id="glyph-0-0">
<path d="M 3.4375 -9.734375 L 1.59375 -7.828125 L 1.828125 -7.625 L 3.421875 -9.0625 L 5.03125 -7.625 L 5.265625 -7.828125 Z M 3.4375 -9.734375 "/>
</g>
<g id="glyph-0-1">
<path d="M 9.46875 -4.546875 C 9.671875 -4.546875 9.921875 -4.546875 9.921875 -4.796875 C 9.921875 -5.0625 9.6875 -5.0625 9.46875 -5.0625 L 1.203125 -5.0625 C 1.015625 -5.0625 0.75 -5.0625 0.75 -4.8125 C 0.75 -4.546875 1 -4.546875 1.203125 -4.546875 Z M 9.46875 -1.9375 C 9.671875 -1.9375 9.921875 -1.9375 9.921875 -2.1875 C 9.921875 -2.453125 9.6875 -2.453125 9.46875 -2.453125 L 1.203125 -2.453125 C 1.015625 -2.453125 0.75 -2.453125 0.75 -2.203125 C 0.75 -1.9375 1 -1.9375 1.203125 -1.9375 Z M 9.46875 -1.9375 "/>
</g>
<g id="glyph-0-2">
<path d="M 4.046875 -9 C 4.046875 -9.3125 4.046875 -9.328125 3.765625 -9.328125 C 3.421875 -8.953125 2.71875 -8.4375 1.28125 -8.4375 L 1.28125 -8.03125 C 1.59375 -8.03125 2.296875 -8.03125 3.078125 -8.390625 L 3.078125 -1.078125 C 3.078125 -0.578125 3.03125 -0.40625 1.796875 -0.40625 L 1.359375 -0.40625 L 1.359375 0 C 1.734375 -0.03125 3.09375 -0.03125 3.5625 -0.03125 C 4.03125 -0.03125 5.375 -0.03125 5.75 0 L 5.75 -0.40625 L 5.3125 -0.40625 C 4.078125 -0.40625 4.046875 -0.578125 4.046875 -1.078125 Z M 4.046875 -9 "/>
</g>
<g id="glyph-0-3">
<path d="M 4.5625 3.40625 C 4.5625 3.375 4.5625 3.34375 4.328125 3.09375 C 2.921875 1.6875 2.125 -0.625 2.125 -3.5 C 2.125 -6.21875 2.796875 -8.5625 4.421875 -10.21875 C 4.5625 -10.34375 4.5625 -10.375 4.5625 -10.40625 C 4.5625 -10.5 4.484375 -10.515625 4.4375 -10.515625 C 4.25 -10.515625 3.09375 -9.515625 2.40625 -8.140625 C 1.703125 -6.71875 1.375 -5.21875 1.375 -3.5 C 1.375 -2.25 1.578125 -0.578125 2.296875 0.921875 C 3.125 2.609375 4.28125 3.515625 4.4375 3.515625 C 4.484375 3.515625 4.5625 3.5 4.5625 3.40625 Z M 4.5625 3.40625 "/>
</g>
<g id="glyph-0-4">
<path d="M 3.953125 -3.5 C 3.953125 -4.5625 3.8125 -6.296875 3.03125 -7.921875 C 2.203125 -9.609375 1.046875 -10.515625 0.890625 -10.515625 C 0.84375 -10.515625 0.765625 -10.5 0.765625 -10.40625 C 0.765625 -10.375 0.765625 -10.34375 1.015625 -10.109375 C 2.40625 -8.6875 3.203125 -6.375 3.203125 -3.5 C 3.203125 -0.78125 2.546875 1.5625 0.90625 3.21875 C 0.765625 3.34375 0.765625 3.375 0.765625 3.40625 C 0.765625 3.5 0.84375 3.515625 0.890625 3.515625 C 1.078125 3.515625 2.234375 2.515625 2.921875 1.140625 C 3.640625 -0.296875 3.953125 -1.8125 3.953125 -3.5 Z M 3.953125 -3.5 "/>
</g>
<g id="glyph-0-5">
<path d="M 5.515625 -9.3125 C 5.109375 -8.90625 4.8125 -8.625 4.359375 -8.625 C 4.15625 -8.625 3.953125 -8.671875 3.515625 -8.96875 C 3.234375 -9.140625 2.953125 -9.3125 2.640625 -9.3125 C 2.125 -9.3125 1.8125 -8.96875 1.15625 -8.234375 L 1.34375 -8.046875 C 1.75 -8.453125 2.046875 -8.734375 2.5 -8.734375 C 2.703125 -8.734375 2.90625 -8.6875 3.34375 -8.390625 C 3.625 -8.21875 3.90625 -8.046875 4.21875 -8.046875 C 4.75 -8.046875 5.046875 -8.390625 5.703125 -9.125 Z M 5.515625 -9.3125 "/>
</g>
<g id="glyph-1-0">
<path d="M 0.4375 2.421875 C 0.421875 2.5 0.390625 2.578125 0.390625 2.671875 C 0.390625 2.875 0.5625 3.015625 0.765625 3.015625 C 0.984375 3.015625 1.171875 2.875 1.265625 2.6875 C 1.3125 2.546875 1.71875 0.875 2.15625 -0.859375 C 2.4375 -0.15625 2.953125 0.140625 3.5 0.140625 C 5.09375 0.140625 6.890625 -1.828125 6.890625 -3.9375 C 6.890625 -5.4375 5.984375 -6.1875 5.015625 -6.1875 C 3.78125 -6.1875 2.265625 -4.90625 1.8125 -3.046875 Z M 3.5 -0.140625 C 2.546875 -0.140625 2.296875 -1.25 2.296875 -1.421875 C 2.296875 -1.5 2.65625 -2.828125 2.6875 -3.046875 C 3.40625 -5.84375 4.78125 -5.90625 5 -5.90625 C 5.625 -5.90625 5.984375 -5.328125 5.984375 -4.5 C 5.984375 -3.78125 5.59375 -2.40625 5.359375 -1.8125 C 4.9375 -0.84375 4.203125 -0.140625 3.5 -0.140625 Z M 3.5 -0.140625 "/>
</g>
<g id="glyph-1-1">
<path d="M 9.828125 -9.140625 C 9.90625 -9.25 9.96875 -9.328125 9.96875 -9.46875 C 9.96875 -9.5625 9.96875 -9.578125 9.640625 -9.578125 L 3.84375 -9.578125 C 3.515625 -9.578125 3.5 -9.5625 3.421875 -9.3125 L 2.65625 -6.796875 C 2.609375 -6.65625 2.609375 -6.625 2.609375 -6.59375 C 2.609375 -6.53125 2.65625 -6.453125 2.75 -6.453125 C 2.859375 -6.453125 2.890625 -6.515625 2.953125 -6.6875 C 3.46875 -8.203125 4.15625 -9.171875 6.375 -9.171875 L 8.671875 -9.171875 L 0.984375 -0.484375 C 0.859375 -0.328125 0.796875 -0.265625 0.796875 -0.109375 C 0.796875 0 0.875 0 1.140625 0 L 7.125 0 C 7.453125 0 7.46875 -0.015625 7.546875 -0.265625 L 8.53125 -3.375 C 8.546875 -3.40625 8.578125 -3.5 8.578125 -3.5625 C 8.578125 -3.640625 8.515625 -3.703125 8.4375 -3.703125 C 8.328125 -3.703125 8.3125 -3.6875 8.1875 -3.34375 C 7.609375 -1.53125 6.984375 -0.4375 4.546875 -0.4375 L 2.125 -0.4375 Z M 9.828125 -9.140625 "/>
</g>
<g id="glyph-1-2">
<path d="M 6.1875 -6.046875 C 6.1875 -6.125 6.125 -6.171875 6.0625 -6.171875 C 5.953125 -6.171875 5.40625 -5.671875 5.140625 -5.171875 C 4.890625 -5.8125 4.453125 -6.1875 3.84375 -6.1875 C 2.265625 -6.1875 0.546875 -4.140625 0.546875 -2.0625 C 0.546875 -0.671875 1.359375 0.140625 2.3125 0.140625 C 3.0625 0.140625 3.671875 -0.421875 3.96875 -0.75 L 3.984375 -0.734375 L 3.453125 1.375 L 3.328125 1.875 C 3.203125 2.296875 2.984375 2.296875 2.328125 2.3125 C 2.171875 2.3125 2.03125 2.3125 2.03125 2.578125 C 2.03125 2.6875 2.125 2.71875 2.21875 2.71875 C 2.40625 2.71875 2.671875 2.6875 2.859375 2.6875 L 4.296875 2.6875 C 4.5 2.6875 4.75 2.71875 4.953125 2.71875 C 5.03125 2.71875 5.203125 2.71875 5.203125 2.453125 C 5.203125 2.3125 5.09375 2.3125 4.890625 2.3125 C 4.21875 2.3125 4.1875 2.21875 4.1875 2.109375 C 4.1875 2.03125 4.203125 2.015625 4.234375 1.84375 Z M 4.203125 -1.671875 C 4.140625 -1.4375 4.140625 -1.40625 3.9375 -1.140625 C 3.640625 -0.75 3.015625 -0.140625 2.359375 -0.140625 C 1.78125 -0.140625 1.453125 -0.65625 1.453125 -1.484375 C 1.453125 -2.265625 1.890625 -3.828125 2.15625 -4.421875 C 2.640625 -5.40625 3.296875 -5.90625 3.84375 -5.90625 C 4.765625 -5.90625 4.953125 -4.75 4.953125 -4.640625 C 4.953125 -4.625 4.90625 -4.453125 4.890625 -4.421875 Z M 4.203125 -1.671875 "/>
</g>
<g id="glyph-1-3">
<path d="M 7.9375 -8.171875 C 7.9375 -9.015625 7.21875 -9.890625 5.953125 -9.890625 C 4.140625 -9.890625 2.984375 -7.671875 2.625 -6.21875 L 0.40625 2.578125 C 0.375 2.6875 0.46875 2.71875 0.53125 2.71875 C 0.625 2.71875 0.703125 2.703125 0.71875 2.640625 L 1.703125 -1.296875 C 1.84375 -0.5 2.609375 0.140625 3.4375 0.140625 C 5.4375 0.140625 7.34375 -1.4375 7.34375 -3.515625 C 7.34375 -4.0625 7.21875 -4.59375 6.921875 -5.03125 C 6.75 -5.296875 6.53125 -5.5 6.3125 -5.671875 C 7.328125 -6.203125 7.9375 -7.0625 7.9375 -8.171875 Z M 5.5 -5.6875 C 5.28125 -5.59375 5.046875 -5.578125 4.78125 -5.578125 C 4.59375 -5.578125 4.40625 -5.5625 4.15625 -5.640625 C 4.296875 -5.734375 4.5 -5.765625 4.796875 -5.765625 C 5.046875 -5.765625 5.296875 -5.734375 5.5 -5.6875 Z M 7.21875 -8.296875 C 7.21875 -7.515625 6.828125 -6.390625 5.921875 -5.875 C 5.65625 -5.984375 5.296875 -6.046875 4.984375 -6.046875 C 4.6875 -6.046875 3.84375 -6.078125 3.84375 -5.625 C 3.84375 -5.25 4.609375 -5.296875 4.859375 -5.296875 C 5.21875 -5.296875 5.546875 -5.375 5.875 -5.46875 C 6.328125 -5.109375 6.53125 -4.625 6.53125 -3.921875 C 6.53125 -3.109375 6.296875 -2.453125 6.03125 -1.859375 C 5.578125 -0.8125 4.46875 -0.140625 3.5 -0.140625 C 2.484375 -0.140625 1.953125 -0.953125 1.953125 -1.90625 C 1.953125 -2.03125 1.953125 -2.21875 2 -2.421875 L 2.921875 -6.125 C 3.375 -7.953125 4.5625 -9.609375 5.921875 -9.609375 C 6.9375 -9.609375 7.21875 -8.90625 7.21875 -8.296875 Z M 7.21875 -8.296875 "/>
</g>
<g id="glyph-1-4">
<path d="M 10.5 -8.5625 C 10.625 -9.03125 10.65625 -9.171875 11.640625 -9.171875 C 11.890625 -9.171875 12.03125 -9.171875 12.03125 -9.421875 C 12.03125 -9.578125 11.90625 -9.578125 11.828125 -9.578125 C 11.578125 -9.578125 11.28125 -9.5625 11.015625 -9.5625 L 9.359375 -9.5625 C 9.09375 -9.5625 8.796875 -9.578125 8.53125 -9.578125 C 8.4375 -9.578125 8.265625 -9.578125 8.265625 -9.3125 C 8.265625 -9.171875 8.359375 -9.171875 8.625 -9.171875 C 9.46875 -9.171875 9.46875 -9.0625 9.46875 -8.90625 C 9.46875 -8.875 9.46875 -8.796875 9.421875 -8.59375 L 8.5625 -5.1875 L 4.328125 -5.1875 L 5.15625 -8.5625 C 5.296875 -9.03125 5.3125 -9.171875 6.3125 -9.171875 C 6.5625 -9.171875 6.703125 -9.171875 6.703125 -9.421875 C 6.703125 -9.578125 6.578125 -9.578125 6.5 -9.578125 C 6.25 -9.578125 5.953125 -9.5625 5.6875 -9.5625 L 4.03125 -9.5625 C 3.765625 -9.5625 3.46875 -9.578125 3.203125 -9.578125 C 3.09375 -9.578125 2.9375 -9.578125 2.9375 -9.3125 C 2.9375 -9.171875 3.03125 -9.171875 3.296875 -9.171875 C 4.140625 -9.171875 4.140625 -9.0625 4.140625 -8.90625 C 4.140625 -8.875 4.140625 -8.796875 4.078125 -8.59375 L 2.1875 -1.03125 C 2.0625 -0.546875 2.03125 -0.40625 1.0625 -0.40625 C 0.75 -0.40625 0.640625 -0.40625 0.640625 -0.140625 C 0.640625 0 0.796875 0 0.84375 0 C 1.09375 0 1.390625 -0.03125 1.65625 -0.03125 L 3.3125 -0.03125 C 3.578125 -0.03125 3.875 0 4.140625 0 C 4.25 0 4.40625 0 4.40625 -0.265625 C 4.40625 -0.40625 4.28125 -0.40625 4.0625 -0.40625 C 3.21875 -0.40625 3.21875 -0.515625 3.21875 -0.65625 C 3.21875 -0.671875 3.21875 -0.765625 3.234375 -0.890625 L 4.203125 -4.78125 L 8.453125 -4.78125 C 8.21875 -3.859375 7.5 -0.921875 7.484375 -0.84375 C 7.328125 -0.421875 7.09375 -0.421875 6.265625 -0.40625 C 6.109375 -0.40625 5.984375 -0.40625 5.984375 -0.140625 C 5.984375 0 6.125 0 6.171875 0 C 6.421875 0 6.71875 -0.03125 6.984375 -0.03125 L 8.640625 -0.03125 C 8.90625 -0.03125 9.203125 0 9.46875 0 C 9.578125 0 9.734375 0 9.734375 -0.265625 C 9.734375 -0.40625 9.609375 -0.40625 9.40625 -0.40625 C 8.546875 -0.40625 8.546875 -0.515625 8.546875 -0.65625 C 8.546875 -0.671875 8.546875 -0.765625 8.578125 -0.890625 Z M 10.5 -8.5625 "/>
</g>
<g id="glyph-1-5">
<path d="M 7.09375 -3.234375 C 6.609375 -1.265625 4.984375 -0.109375 3.65625 -0.109375 C 2.65625 -0.109375 1.96875 -0.78125 1.96875 -1.953125 C 1.96875 -2 1.96875 -2.421875 2.125 -3.046875 L 3.5 -8.5625 C 3.625 -9.03125 3.640625 -9.171875 4.640625 -9.171875 C 4.890625 -9.171875 5.03125 -9.171875 5.03125 -9.421875 C 5.03125 -9.578125 4.90625 -9.578125 4.828125 -9.578125 C 4.578125 -9.578125 4.28125 -9.5625 4.015625 -9.5625 L 2.359375 -9.5625 C 2.09375 -9.5625 1.796875 -9.578125 1.53125 -9.578125 C 1.4375 -9.578125 1.265625 -9.578125 1.265625 -9.3125 C 1.265625 -9.171875 1.359375 -9.171875 1.625 -9.171875 C 2.46875 -9.171875 2.46875 -9.0625 2.46875 -8.90625 C 2.46875 -8.828125 2.375 -8.421875 2.296875 -8.1875 L 1.078125 -3.265625 C 1.03125 -3.109375 0.953125 -2.734375 0.953125 -2.359375 C 0.953125 -0.8125 2.0625 0.296875 3.59375 0.296875 C 5.015625 0.296875 6.578125 -0.828125 7.296875 -2.609375 C 7.390625 -2.84375 7.515625 -3.34375 7.609375 -3.71875 C 7.75 -4.21875 8.046875 -5.453125 8.140625 -5.828125 L 8.671875 -7.921875 C 8.859375 -8.65625 8.96875 -9.125 10.203125 -9.171875 C 10.3125 -9.1875 10.375 -9.296875 10.375 -9.421875 C 10.375 -9.578125 10.25 -9.578125 10.1875 -9.578125 C 9.984375 -9.578125 9.734375 -9.5625 9.546875 -9.5625 L 8.875 -9.5625 C 8.015625 -9.5625 7.5625 -9.578125 7.546875 -9.578125 C 7.46875 -9.578125 7.296875 -9.578125 7.296875 -9.3125 C 7.296875 -9.171875 7.40625 -9.171875 7.5 -9.171875 C 8.34375 -9.140625 8.40625 -8.828125 8.40625 -8.578125 C 8.40625 -8.453125 8.40625 -8.40625 8.34375 -8.203125 Z M 7.09375 -3.234375 "/>
</g>
<g id="glyph-2-0">
<path d="M 4.40625 -4.203125 C 4.40625 -4.234375 4.375 -4.296875 4.3125 -4.296875 C 4.203125 -4.296875 3.8125 -3.90625 3.640625 -3.625 C 3.4375 -4.15625 3.046875 -4.3125 2.734375 -4.3125 C 1.59375 -4.3125 0.390625 -2.859375 0.390625 -1.453125 C 0.390625 -0.5 0.96875 0.109375 1.671875 0.109375 C 2.09375 0.109375 2.46875 -0.125 2.828125 -0.484375 C 2.734375 -0.140625 2.421875 1.1875 2.390625 1.265625 C 2.3125 1.546875 2.234375 1.578125 1.6875 1.59375 C 1.5625 1.59375 1.46875 1.59375 1.46875 1.78125 C 1.46875 1.796875 1.46875 1.890625 1.59375 1.890625 C 1.90625 1.890625 2.25 1.859375 2.5625 1.859375 C 2.890625 1.859375 3.25 1.890625 3.5625 1.890625 C 3.625 1.890625 3.75 1.890625 3.75 1.703125 C 3.75 1.59375 3.640625 1.59375 3.484375 1.59375 C 3.015625 1.59375 3.015625 1.515625 3.015625 1.4375 C 3.015625 1.359375 3.046875 1.3125 3.0625 1.21875 Z M 1.703125 -0.109375 C 1.125 -0.109375 1.078125 -0.859375 1.078125 -1.03125 C 1.078125 -1.484375 1.359375 -2.546875 1.53125 -2.96875 C 1.828125 -3.6875 2.34375 -4.09375 2.734375 -4.09375 C 3.375 -4.09375 3.515625 -3.3125 3.515625 -3.234375 C 3.515625 -3.171875 2.96875 -1.046875 2.9375 -1 C 2.796875 -0.734375 2.25 -0.109375 1.703125 -0.109375 Z M 1.703125 -0.109375 "/>
</g>
<g id="glyph-2-1">
<path d="M 4.28125 -6.9375 C 4.328125 -7.0625 4.328125 -7.109375 4.328125 -7.125 C 4.328125 -7.21875 4.234375 -7.3125 4.140625 -7.3125 C 4.0625 -7.3125 4 -7.28125 3.96875 -7.21875 L 0.578125 2.0625 C 0.53125 2.1875 0.53125 2.234375 0.53125 2.25 C 0.53125 2.34375 0.625 2.4375 0.734375 2.4375 C 0.859375 2.4375 0.890625 2.375 0.953125 2.203125 Z M 4.28125 -6.9375 "/>
</g>
<g id="glyph-3-0">
<path d="M 3.171875 24.6875 L 6.359375 24.6875 L 6.359375 24.015625 L 3.828125 24.015625 L 3.828125 0.09375 L 6.359375 0.09375 L 6.359375 -0.5625 L 3.171875 -0.5625 Z M 3.171875 24.6875 "/>
</g>
<g id="glyph-3-1">
<path d="M 7.21875 24.53125 C 7.25 24.546875 7.375 24.6875 7.390625 24.6875 L 7.703125 24.6875 C 7.75 24.6875 7.859375 24.671875 7.859375 24.546875 C 7.859375 24.484375 7.828125 24.453125 7.796875 24.421875 C 7.296875 23.90625 6.53125 23.140625 5.671875 21.59375 C 4.15625 18.90625 3.59375 15.4375 3.59375 12.0625 C 3.59375 5.84375 5.359375 2.171875 7.8125 -0.3125 C 7.859375 -0.34375 7.859375 -0.390625 7.859375 -0.421875 C 7.859375 -0.5625 7.765625 -0.5625 7.59375 -0.5625 C 7.40625 -0.5625 7.375 -0.5625 7.25 -0.453125 C 5.921875 0.703125 4.421875 2.65625 3.453125 5.609375 C 2.84375 7.46875 2.53125 9.71875 2.53125 12.046875 C 2.53125 15.375 3.125 19.140625 5.328125 22.390625 C 5.703125 22.9375 6.234375 23.515625 6.234375 23.53125 C 6.375 23.703125 6.5625 23.921875 6.671875 24.015625 Z M 7.21875 24.53125 "/>
</g>
<g id="glyph-3-2">
<path d="M 5.84375 12.046875 C 5.84375 8.03125 4.890625 3.75 2.125 0.59375 C 1.9375 0.359375 1.421875 -0.1875 1.078125 -0.484375 C 0.984375 -0.5625 0.953125 -0.5625 0.765625 -0.5625 C 0.625 -0.5625 0.5 -0.5625 0.5 -0.421875 C 0.5 -0.359375 0.5625 -0.3125 0.59375 -0.28125 C 1.0625 0.203125 1.828125 0.984375 2.6875 2.53125 C 4.203125 5.21875 4.765625 8.6875 4.765625 12.046875 C 4.765625 18.140625 3.09375 21.859375 0.5625 24.421875 C 0.53125 24.453125 0.5 24.5 0.5 24.546875 C 0.5 24.6875 0.625 24.6875 0.765625 24.6875 C 0.953125 24.6875 0.984375 24.6875 1.109375 24.5625 C 2.4375 23.421875 3.9375 21.46875 4.90625 18.5 C 5.53125 16.578125 5.84375 14.3125 5.84375 12.046875 Z M 5.84375 12.046875 "/>
</g>
<g id="glyph-3-3">
<path d="M 2.78125 24.015625 L 0.25 24.015625 L 0.25 24.6875 L 3.4375 24.6875 L 3.4375 -0.5625 L 0.25 -0.5625 L 0.25 0.09375 L 2.78125 0.09375 Z M 2.78125 24.015625 "/>
</g>
<g id="glyph-4-0">
<path d="M 9.25 -3.234375 C 9.484375 -3.234375 9.734375 -3.234375 9.734375 -3.5 C 9.734375 -3.78125 9.484375 -3.78125 9.25 -3.78125 L 1.65625 -3.78125 C 1.421875 -3.78125 1.171875 -3.78125 1.171875 -3.5 C 1.171875 -3.234375 1.421875 -3.234375 1.65625 -3.234375 Z M 9.25 -3.234375 "/>
</g>
<g id="glyph-5-0">
<path d="M 2.859375 -6.234375 C 2.859375 -6.46875 2.859375 -6.5 2.640625 -6.5 C 2.03125 -5.875 1.1875 -5.875 0.875 -5.875 L 0.875 -5.5625 C 1.0625 -5.5625 1.640625 -5.5625 2.140625 -5.828125 L 2.140625 -0.765625 C 2.140625 -0.421875 2.109375 -0.296875 1.234375 -0.296875 L 0.921875 -0.296875 L 0.921875 0 C 1.265625 -0.03125 2.109375 -0.03125 2.5 -0.03125 C 2.890625 -0.03125 3.75 -0.03125 4.078125 0 L 4.078125 -0.296875 L 3.765625 -0.296875 C 2.890625 -0.296875 2.859375 -0.40625 2.859375 -0.765625 Z M 2.859375 -6.234375 "/>
</g>
<g id="glyph-5-1">
<path d="M 3.234375 2.34375 C 3.234375 2.3125 3.234375 2.296875 3.0625 2.125 C 1.84375 0.890625 1.53125 -0.953125 1.53125 -2.4375 C 1.53125 -4.140625 1.90625 -5.828125 3.09375 -7.046875 C 3.234375 -7.171875 3.234375 -7.1875 3.234375 -7.21875 C 3.234375 -7.28125 3.1875 -7.3125 3.125 -7.3125 C 3.03125 -7.3125 2.15625 -6.65625 1.578125 -5.40625 C 1.078125 -4.34375 0.96875 -3.25 0.96875 -2.4375 C 0.96875 -1.671875 1.078125 -0.5 1.609375 0.609375 C 2.1875 1.796875 3.03125 2.4375 3.125 2.4375 C 3.1875 2.4375 3.234375 2.40625 3.234375 2.34375 Z M 3.234375 2.34375 "/>
</g>
<g id="glyph-5-2">
<path d="M 2.8125 -2.4375 C 2.8125 -3.203125 2.703125 -4.375 2.171875 -5.484375 C 1.59375 -6.671875 0.75 -7.3125 0.65625 -7.3125 C 0.59375 -7.3125 0.5625 -7.265625 0.5625 -7.21875 C 0.5625 -7.1875 0.5625 -7.171875 0.734375 -6.984375 C 1.703125 -6.03125 2.25 -4.46875 2.25 -2.4375 C 2.25 -0.765625 1.890625 0.953125 0.6875 2.171875 C 0.5625 2.296875 0.5625 2.3125 0.5625 2.34375 C 0.5625 2.40625 0.59375 2.4375 0.65625 2.4375 C 0.75 2.4375 1.625 1.78125 2.203125 0.53125 C 2.703125 -0.53125 2.8125 -1.625 2.8125 -2.4375 Z M 2.8125 -2.4375 "/>
</g>
<g id="glyph-6-0">
<path d="M 6.421875 -2.25 C 6.59375 -2.25 6.765625 -2.25 6.765625 -2.4375 C 6.765625 -2.625 6.59375 -2.625 6.421875 -2.625 L 1.15625 -2.625 C 0.984375 -2.625 0.8125 -2.625 0.8125 -2.4375 C 0.8125 -2.25 0.984375 -2.25 1.15625 -2.25 Z M 6.421875 -2.25 "/>
</g>
</g>
</defs>
<g fill="rgb(0%, 0%, 0%)" fill-opacity="1">
<use xlink:href="#glyph-0-0" x="8.592282" y="24.556037"/>
</g>
<g fill="rgb(0%, 0%, 0%)" fill-opacity="1">
<use xlink:href="#glyph-1-0" x="7.337777" y="24.556037"/>
</g>
<g fill="rgb(0%, 0%, 0%)" fill-opacity="1">
<use xlink:href="#glyph-0-1" x="18.325222" y="24.556037"/>
</g>
<g fill="rgb(0%, 0%, 0%)" fill-opacity="1">
<use xlink:href="#glyph-0-2" x="37.938239" y="15.062275"/>
</g>
<path fill="none" stroke-width="0.574" stroke-linecap="butt" stroke-linejoin="miter" stroke="rgb(0%, 0%, 0%)" stroke-opacity="1" stroke-miterlimit="10" d="M 0.000591535 0.000611437 L 14.916599 0.000611437 " transform="matrix(0.978133, 0, 0, -0.978133, 34.077546, 21.047473)"/>
<g fill="rgb(0%, 0%, 0%)" fill-opacity="1">
<use xlink:href="#glyph-1-1" x="34.077546" y="34.181847"/>
</g>
<g fill="rgb(0%, 0%, 0%)" fill-opacity="1">
<use xlink:href="#glyph-2-0" x="43.48132" y="36.285812"/>
</g>
<g fill="rgb(0%, 0%, 0%)" fill-opacity="1">
<use xlink:href="#glyph-3-0" x="52.176926" y="8.979264"/>
</g>
<g fill="rgb(0%, 0%, 0%)" fill-opacity="1">
<use xlink:href="#glyph-0-2" x="58.803779" y="24.556037"/>
</g>
<g fill="rgb(0%, 0%, 0%)" fill-opacity="1">
<use xlink:href="#glyph-4-0" x="68.789303" y="24.556037"/>
</g>
<g fill="rgb(0%, 0%, 0%)" fill-opacity="1">
<use xlink:href="#glyph-0-3" x="82.818993" y="24.556037"/>
<use xlink:href="#glyph-0-2" x="88.162568" y="24.556037"/>
</g>
<g fill="rgb(0%, 0%, 0%)" fill-opacity="1">
<use xlink:href="#glyph-4-0" x="98.162125" y="24.556037"/>
</g>
<g fill="rgb(0%, 0%, 0%)" fill-opacity="1">
<use xlink:href="#glyph-1-2" x="112.191815" y="24.556037"/>
</g>
<g fill="rgb(0%, 0%, 0%)" fill-opacity="1">
<use xlink:href="#glyph-0-4" x="118.788491" y="24.556037"/>
</g>
<g fill="rgb(0%, 0%, 0%)" fill-opacity="1">
<use xlink:href="#glyph-0-5" x="126.104243" y="20.852825"/>
</g>
<g fill="rgb(0%, 0%, 0%)" fill-opacity="1">
<use xlink:href="#glyph-1-3" x="124.127435" y="24.556037"/>
</g>
<g fill="rgb(0%, 0%, 0%)" fill-opacity="1">
<use xlink:href="#glyph-3-1" x="135.000366" y="8.979264"/>
</g>
<g fill="rgb(0%, 0%, 0%)" fill-opacity="1">
<use xlink:href="#glyph-0-0" x="146.943374" y="21.008348"/>
</g>
<g fill="rgb(0%, 0%, 0%)" fill-opacity="1">
<use xlink:href="#glyph-1-4" x="143.381012" y="24.556037"/>
</g>
<g fill="rgb(0%, 0%, 0%)" fill-opacity="1">
<use xlink:href="#glyph-4-0" x="158.961293" y="24.556037"/>
</g>
<g fill="rgb(0%, 0%, 0%)" fill-opacity="1">
<use xlink:href="#glyph-1-5" x="173.005015" y="24.556037"/>
</g>
<g fill="rgb(0%, 0%, 0%)" fill-opacity="1">
<use xlink:href="#glyph-2-0" x="182.332238" y="26.66098"/>
</g>
<g fill="rgb(0%, 0%, 0%)" fill-opacity="1">
<use xlink:href="#glyph-3-2" x="187.519279" y="8.979264"/>
<use xlink:href="#glyph-3-3" x="195.899486" y="8.979264"/>
</g>
<g fill="rgb(0%, 0%, 0%)" fill-opacity="1">
<use xlink:href="#glyph-5-0" x="200.902099" y="12.180694"/>
</g>
<g fill="rgb(0%, 0%, 0%)" fill-opacity="1">
<use xlink:href="#glyph-2-1" x="205.774475" y="12.180694"/>
</g>
<g fill="rgb(0%, 0%, 0%)" fill-opacity="1">
<use xlink:href="#glyph-5-1" x="210.64685" y="12.180694"/>
<use xlink:href="#glyph-5-0" x="214.436584" y="12.180694"/>
</g>
<g fill="rgb(0%, 0%, 0%)" fill-opacity="1">
<use xlink:href="#glyph-6-0" x="219.308959" y="12.180694"/>
</g>
<g fill="rgb(0%, 0%, 0%)" fill-opacity="1">
<use xlink:href="#glyph-2-0" x="226.888427" y="12.180694"/>
</g>
<g fill="rgb(0%, 0%, 0%)" fill-opacity="1">
<use xlink:href="#glyph-5-2" x="231.589295" y="12.180694"/>
</g>
</svg>
